<?xml version="1.0" encoding="UTF-8" standalone="no"?>
<svg
   width="24"
   height="24"
   viewBox="0 0 24 24"
   version="1.1"
   id="svg1"
   sodipodi:docname="iconmonstr-linkedin-3.svg"
   inkscape:version="1.3 (0e150ed6c4, 2023-07-21)"
   xmlns:inkscape="http://www.inkscape.org/namespaces/inkscape"
   xmlns:sodipodi="http://sodipodi.sourceforge.net/DTD/sodipodi-0.dtd"
   xmlns="http://www.w3.org/2000/svg"
   xmlns:svg="http://www.w3.org/2000/svg">
  <defs
     id="defs1" />
  <sodipodi:namedview
     id="namedview1"
     pagecolor="#505050"
     bordercolor="#eeeeee"
     borderopacity="1"
     inkscape:showpageshadow="0"
     inkscape:pageopacity="0"
     inkscape:pagecheckerboard="0"
     inkscape:deskcolor="#505050"
     inkscape:zoom="11.313709"
     inkscape:cx="-6.5849319"
     inkscape:cy="20.992233"
     inkscape:window-width="1920"
     inkscape:window-height="1057"
     inkscape:window-x="-8"
     inkscape:window-y="-8"
     inkscape:window-maximized="1"
     inkscape:current-layer="svg1" />
  <path
     d="M19 0h-14c-2.761 0-5 2.239-5 5v14c0 2.761 2.239 5 5 5h14c2.762 0 5-2.239 5-5v-14c0-2.761-2.238-5-5-5zm-11 19h-3v-11h3v11zm-1.5-12.268c-.966 0-1.75-.79-1.75-1.764s.784-1.764 1.75-1.764 1.75.79 1.75 1.764-.783 1.764-1.75 1.764zm13.5 12.268h-3v-5.604c0-3.368-4-3.113-4 0v5.604h-3v-11h3v1.765c1.396-2.586 7-2.777 7 2.476v6.759z"
     id="path1" />
  <path
     style="fill:#8839ef;fill-opacity:1;fill-rule:evenodd;stroke:#179299;stroke-width:0.119501;stroke-opacity:1"
     d="M 4.3068335,23.898192 C 2.2801079,23.600011 0.64051276,22.077555 0.17241319,20.059149 0.05731313,19.562847 0.04227894,18.402006 0.06454111,11.729976 L 0.09040843,3.9774756 0.29557414,3.4274543 C 0.84396597,1.9572905 2.042812,0.77644691 3.4849643,0.28595767 L 4.065864,0.08838835 11.77601,0.06395764 c 6.620033,-0.02097654 7.791418,-0.0055821 8.284978,0.10888211 1.770708,0.41065468 3.181062,1.74906245 3.729734,3.53947085 0.152519,0.497695 0.16252,1.0089786 0.16252,8.3085044 v 7.778175 l -0.244752,0.691889 c -0.287113,0.811636 -0.680608,1.454259 -1.221981,1.99563 -0.541371,0.541373 -1.183994,0.934868 -1.99563,1.221981 l -0.691889,0.244752 -7.468816,0.01327 c -4.1838095,0.0074 -7.7127116,-0.02262 -8.0233405,-0.06832 z M 7.9991454,13.523417 V 7.9991454 H 6.4965435 4.9939416 v 5.5242716 5.524272 h 1.5026019 1.5026019 z m 5.0381356,2.490916 c 0,-3.563231 0.0246,-3.717173 0.702201,-4.394778 0.596724,-0.596724 1.255389,-0.759815 1.930192,-0.477934 0.416843,0.174126 0.778253,0.516384 1.021721,0.967583 0.184206,0.34137 0.191679,0.467 0.216899,3.646019 l 0.02612,3.292466 h 1.542773 1.542774 V 15.25134 c 0,-3.988473 -0.02776,-4.342934 -0.407639,-5.204494 -0.596202,-1.3521864 -1.737287,-2.0477006 -3.359529,-2.0477006 -1.173812,0 -2.163495,0.4037349 -2.884055,1.1765311 L 13.037281,9.5311612 V 8.7651533 7.9991454 H 11.490485 9.9436891 v 5.5242716 5.524272 h 1.5467959 1.546796 z M 7.1831859,6.6249075 C 7.9250671,6.3149297 8.3011194,5.690538 8.2480341,4.8568493 8.1831322,3.8375838 7.5051756,3.1951361 6.4872293,3.1882691 5.2174639,3.1797033 4.3668628,4.4869912 4.8655777,5.6805839 5.2399584,6.5766031 6.2823122,7.0013166 7.1831859,6.6249075 Z"
     id="path6" />
</svg>
