<?xml version="1.0" encoding="UTF-8" standalone="no"?>
<svg
   width="24px"
   height="24px"
   version="1.1"
   xml:space="preserve"
   style="fill-rule:evenodd;clip-rule:evenodd;stroke-linejoin:round;stroke-miterlimit:1.41421;"
   id="svg1"
   sodipodi:docname="iconmonstr-telegram-3.svg"
   inkscape:version="1.3 (0e150ed6c4, 2023-07-21)"
   xmlns:inkscape="http://www.inkscape.org/namespaces/inkscape"
   xmlns:sodipodi="http://sodipodi.sourceforge.net/DTD/sodipodi-0.dtd"
   xmlns="http://www.w3.org/2000/svg"
   xmlns:svg="http://www.w3.org/2000/svg"><defs
     id="defs1" /><sodipodi:namedview
     id="namedview1"
     pagecolor="#505050"
     bordercolor="#eeeeee"
     borderopacity="1"
     inkscape:showpageshadow="0"
     inkscape:pageopacity="0"
     inkscape:pagecheckerboard="0"
     inkscape:deskcolor="#505050"
     inkscape:zoom="16"
     inkscape:cx="25.40625"
     inkscape:cy="6.65625"
     inkscape:window-width="1920"
     inkscape:window-height="1057"
     inkscape:window-x="-8"
     inkscape:window-y="-8"
     inkscape:window-maximized="1"
     inkscape:current-layer="svg1" /><path
     id="telegram-3"
     d="M19,24l-14,0c-2.761,0 -5,-2.239 -5,-5l0,-14c0,-2.761 2.239,-5 5,-5l14,0c2.762,0 5,2.239 5,5l0,14c0,2.761 -2.238,5 -5,5Zm-2.744,-5.148c0.215,0.153 0.491,0.191 0.738,0.097c0.246,-0.093 0.428,-0.304 0.483,-0.56c0.579,-2.722 1.985,-9.614 2.512,-12.09c0.039,-0.187 -0.027,-0.381 -0.173,-0.506c-0.147,-0.124 -0.351,-0.16 -0.532,-0.093c-2.795,1.034 -11.404,4.264 -14.923,5.567c-0.223,0.082 -0.368,0.297 -0.361,0.533c0.008,0.235 0.167,0.44 0.395,0.509c1.578,0.471 3.65,1.128 3.65,1.128c0,0 0.967,2.924 1.472,4.41c0.063,0.187 0.21,0.334 0.402,0.384c0.193,0.05 0.397,-0.002 0.541,-0.138c0.811,-0.765 2.064,-1.948 2.064,-1.948c0,0 2.381,1.746 3.732,2.707Zm-7.34,-5.784l1.119,3.692l0.249,-2.338c0,0 4.324,-3.9 6.79,-6.124c0.072,-0.065 0.082,-0.174 0.022,-0.251c-0.06,-0.077 -0.169,-0.095 -0.251,-0.043c-2.857,1.825 -7.929,5.064 -7.929,5.064Z" /><path
     style="fill:#8839ef;fill-opacity:1;fill-rule:evenodd;stroke:#179299;stroke-width:0.0597505"
     d="M 4.1585428,23.904336 C 2.0223268,23.518565 0.36632225,21.803443 0.06949162,19.66931 c -0.0660417,-0.474823 -0.0660417,-14.8663606 0,-15.341183 C 0.37668992,2.119453 2.1541067,0.35507151 4.3628139,0.06629113 4.6164743,0.03312599 7.0342828,0.02240279 12.241786,0.03134719 l 7.51301,0.01290433 0.423105,0.11698405 c 0.996761,0.27559392 1.61327,0.63113914 2.320215,1.33808443 0.706924,0.7069232 1.062418,1.3233311 1.338113,2.3202157 l 0.117013,0.423105 0.0132,7.5351063 c 0.0095,5.414692 -8.03e-4,7.633421 -0.03657,7.884475 -0.308087,2.162661 -1.964695,3.874182 -4.10553,4.241618 -0.373193,0.06405 -1.192562,0.07109 -7.866563,0.06753 C 5.7099078,23.96807 4.4514438,23.95723 4.1585368,23.90433 Z M 17.070011,18.931849 c 0.109314,-0.05292 0.239472,-0.163584 0.298874,-0.254116 0.114145,-0.173964 0.08299,-0.03081 1.564032,-7.187248 0.43764,-2.114691 0.856287,-4.1289833 0.930328,-4.4762045 0.150348,-0.7050752 0.16448,-0.9284193 0.07027,-1.1105934 -0.06673,-0.1290346 -0.304089,-0.2689299 -0.456298,-0.2689299 -0.04809,0 -3.12763,1.1346407 -6.843418,2.5214234 C 8.9180152,9.5429637 5.5198523,10.810207 5.08233,10.972277 4.1245182,11.327076 3.9995727,11.419336 3.9995727,11.77179 c 0,0.297296 0.159515,0.48785 0.4937166,0.589786 2.3444624,0.715092 3.4710059,1.071902 3.5116067,1.112231 0.02747,0.02728 0.3808172,1.045021 0.7852169,2.261633 0.4043992,1.216613 0.7673554,2.257829 0.8065688,2.313814 0.1426778,0.203702 0.4887433,0.279708 0.7226963,0.158726 0.07053,-0.03647 0.591583,-0.503805 1.157902,-1.038521 0.566319,-0.534715 1.039615,-0.972176 1.051768,-0.972136 0.01215,4.1e-5 0.827536,0.586473 1.811961,1.303183 0.984426,0.71671 1.888234,1.353053 2.008464,1.414097 0.267073,0.1356 0.466206,0.140366 0.720538,0.01725 z"
     id="path3" /><path
     style="fill:#8839ef;fill-opacity:1;fill-rule:evenodd;stroke:#179299;stroke-width:0.0597505"
     d="M 9.9539977,16.396038 C 9.6525432,15.485699 8.9516989,13.084413 8.9802219,13.059613 c 0.019464,-0.01692 1.7755351,-1.140751 3.9023801,-2.497394 2.126844,-1.3566427 3.913025,-2.4964278 3.969289,-2.5328554 0.09382,-0.06074 0.110149,-0.058383 0.196964,0.028432 0.09427,0.094275 0.09431,0.095108 0.0082,0.2025633 -0.04756,0.059344 -1.528313,1.4042654 -3.290556,2.9887131 -1.762243,1.584448 -3.271511,2.946364 -3.353929,3.026479 l -0.149851,0.145664 -0.117767,1.097897 -0.117767,1.097897 z"
     id="path4" /></svg>
