<?xml version="1.0" encoding="UTF-8" standalone="no"?>
<!-- Uploaded to: SVG Repo, www.svgrepo.com, Generator: SVG Repo Mixer Tools -->

<svg
   width="800px"
   height="800px"
   viewBox="0 0 64 64"
   aria-hidden="true"
   role="img"
   class="iconify iconify--emojione-monotone"
   preserveAspectRatio="xMidYMid meet"
   version="1.1"
   id="svg1"
   sodipodi:docname="letter-c-svgrepo-com.svg"
   inkscape:version="1.3 (0e150ed6c4, 2023-07-21)"
   xmlns:inkscape="http://www.inkscape.org/namespaces/inkscape"
   xmlns:sodipodi="http://sodipodi.sourceforge.net/DTD/sodipodi-0.dtd"
   xmlns="http://www.w3.org/2000/svg"
   xmlns:svg="http://www.w3.org/2000/svg">
  <defs
     id="defs1" />
  <sodipodi:namedview
     id="namedview1"
     pagecolor="#505050"
     bordercolor="#eeeeee"
     borderopacity="1"
     inkscape:showpageshadow="0"
     inkscape:pageopacity="0"
     inkscape:pagecheckerboard="0"
     inkscape:deskcolor="#505050"
     inkscape:zoom="0.538125"
     inkscape:cx="402.32288"
     inkscape:cy="368.8734"
     inkscape:window-width="1920"
     inkscape:window-height="1057"
     inkscape:window-x="-8"
     inkscape:window-y="-8"
     inkscape:window-maximized="1"
     inkscape:current-layer="svg1" />
  <path
     d="M32 2C15.432 2 2 15.432 2 32s13.432 30 30 30s30-13.432 30-30S48.568 2 32 2m-4.592 37.521c1.316 1.621 2.988 2.431 5.018 2.431c2.078 0 3.664-.695 4.756-2.086c.604-.748 1.104-1.87 1.502-3.366h6.023c-.52 3.163-1.848 5.735-3.982 7.717c-2.137 1.981-4.871 2.972-8.209 2.972c-4.129 0-7.375-1.338-9.736-4.016c-2.363-2.689-3.545-6.378-3.545-11.063c0-5.066 1.344-8.971 4.031-11.713c2.338-2.389 5.311-3.583 8.92-3.583c4.83 0 8.361 1.601 10.594 4.804c1.234 1.798 1.896 3.602 1.986 5.413h-6.063c-.387-1.392-.881-2.44-1.484-3.149c-1.08-1.26-2.682-1.891-4.803-1.891c-2.16 0-3.863.89-5.111 2.668c-1.246 1.778-1.869 4.295-1.869 7.549c0 3.254.658 5.691 1.972 7.313"
     fill="#000000"
     id="path1" />
  <path
     style="fill:#179299;fill-rule:evenodd;stroke:#179299;stroke-width:1.25621"
     d="M 375.37747,773.86763 C 296.08405,767.55695 225.72056,740.08726 165.85366,692.07018 150.38604,679.66416 127.85036,657.8067 115.23333,642.97329 66.394806,585.55551 37.147561,518.32361 27.724011,441.81185 c -2.3419,-19.01437 -2.3419,-64.60933 0,-83.6237 10.862712,-88.19662 48.217648,-164.46255 110.390389,-225.3792 28.18831,-27.61881 55.67139,-47.613075 89.38839,-65.031072 41.87943,-21.634657 82.68894,-34.142401 130.68536,-40.053867 19.01437,-2.3419 64.60933,-2.3419 83.6237,0 69.22765,8.526405 130.1493,32.942439 184.4367,73.918099 26.4715,19.98046 54.96681,48.90085 75.34825,76.47227 33.07142,44.73804 56.63953,99.15948 66.7172,154.05751 4.58867,24.99679 5.62135,37.45723 5.62135,67.82811 0,30.37088 -1.03268,42.83132 -5.62135,67.82811 -11.06424,60.2724 -37.70135,118.3952 -76.22201,166.31823 -12.46661,15.50954 -34.33003,38.04135 -49.1187,50.62033 -57.1405,48.60268 -124.97059,78.20065 -200.23229,87.37231 -11.99253,1.46145 -56.40177,2.60106 -67.36353,1.72865 z M 423.2288,589.49119 c 20.50217,-1.87779 39.18338,-6.94866 55.12199,-14.96244 31.98245,-16.08045 57.86806,-46.0016 71.60127,-82.76379 3.43746,-9.20169 8.93296,-30.05794 8.93296,-33.90193 v -2.1139 l -37.86295,0.0144 -37.86295,0.0144 -3.20254,10.27708 c -7.64307,24.52686 -19.26065,40.24075 -36.31186,49.11517 -10.97848,5.71383 -18.83036,7.59774 -33.97964,8.15272 -25.21608,0.92378 -41.4007,-4.92786 -58.31915,-21.0856 -11.92076,-11.38477 -19.30203,-23.31588 -24.76294,-40.02695 -11.63582,-35.60698 -10.60906,-94.33999 2.24631,-128.49355 6.23653,-16.56894 17.5281,-33.35266 28.21161,-41.93357 6.48644,-5.20986 19.90814,-11.9932 28.09266,-14.19805 9.24853,-2.49149 34.95784,-2.18334 45.06387,0.54014 25.76197,6.94261 40.61423,22.19835 50.62974,52.00515 l 2.7153,8.0809 38.13585,0.24259 38.13584,0.24261 v -3.14064 c 0,-1.72734 -0.62355,-6.71635 -1.38567,-11.08667 -6.50245,-37.28779 -32.40739,-74.21031 -65.758,-93.7254 -31.95976,-18.70124 -84.3127,-25.92709 -126.35136,-17.43926 -28.65084,5.78477 -53.32627,19.14704 -74.54925,40.37004 -13.00634,13.00633 -21.00448,24.25223 -29.72535,41.79573 -10.25774,20.63522 -15.98424,39.93692 -19.70995,66.43438 -2.33879,16.63364 -2.3335,62.67229 0.009,78.51336 7.5026,50.73539 26.49172,88.52335 57.61397,114.65061 31.51922,26.46052 75.65108,38.78396 123.27121,34.42246 z"
     id="path2"
     transform="scale(0.08)" />
  <path
     style="fill:#8839ef;fill-rule:evenodd;stroke:#179299;stroke-width:1.25621;fill-opacity:1;stroke-opacity:1"
     d="m 374.78858,774.03782 c -0.32388,-0.33683 -3.04165,-0.787 -6.03949,-1.00038 -2.99782,-0.21337 -7.33213,-0.61826 -9.63178,-0.89974 -10.31379,-1.26244 -15.69947,-2.01263 -19.97678,-2.78262 -1.5331,-0.27599 -3.7075,-0.50367 -4.832,-0.50596 -1.12449,-0.002 -2.30322,-0.42269 -2.61937,-0.93425 -0.31615,-0.51154 -0.95441,-0.69549 -1.41834,-0.40876 -0.46393,0.28672 -2.63016,0.019 -4.81384,-0.59483 -2.18369,-0.61388 -4.80657,-1.25983 -5.82864,-1.43545 -4.14438,-0.71211 -5.57491,-1.02021 -5.57491,-1.2007 0,-0.34623 -3.69096,-1.11066 -5.32433,-1.10271 -0.88425,0.004 -1.8539,-0.39051 -2.1548,-0.87736 -0.30089,-0.48686 -0.9363,-0.64463 -1.41202,-0.35061 -0.47572,0.29401 -1.3876,0.20839 -2.02639,-0.19026 -0.63879,-0.39865 -1.99768,-0.84632 -3.01975,-0.9948 -1.02206,-0.14849 -2.48548,-0.53699 -3.25203,-0.86333 -0.76655,-0.32635 -2.22996,-0.74447 -3.25203,-0.92916 -1.02207,-0.18468 -2.48548,-0.60841 -3.25203,-0.9416 -0.76655,-0.33319 -1.70732,-0.69418 -2.0906,-0.80219 -0.38327,-0.10803 -0.90592,-0.30093 -1.16144,-0.42868 -0.25551,-0.12776 -0.88269,-0.33682 -1.39372,-0.46458 -0.51104,-0.12776 -1.13822,-0.33682 -1.39373,-0.46458 -0.25552,-0.12776 -0.8827,-0.33681 -1.39373,-0.46457 -0.51103,-0.12776 -1.13821,-0.33682 -1.39373,-0.46458 -0.25552,-0.12776 -0.88269,-0.33682 -1.39373,-0.46458 -0.51103,-0.12775 -1.13821,-0.33681 -1.39373,-0.46457 -0.25551,-0.12776 -0.88269,-0.33682 -1.39372,-0.46458 -0.51104,-0.12776 -1.03369,-0.31562 -1.16144,-0.41747 -0.12776,-0.10186 -1.20465,-0.36538 -2.3931,-0.58561 -1.18844,-0.22023 -3.06997,-0.90605 -4.18118,-1.52404 -1.11121,-0.618 -2.33397,-1.19072 -2.71725,-1.2727 -0.38327,-0.082 -0.90592,-0.2536 -1.16144,-0.38136 -0.25551,-0.12776 -0.77816,-0.31865 -1.16144,-0.42419 -4.78342,-1.31725 -5.8072,-1.77893 -5.8072,-2.61885 0,-0.54081 -0.28021,-0.70307 -0.62269,-0.3606 -0.34248,0.34249 -1.59684,-0.0156 -2.78745,-0.79571 -1.19063,-0.78012 -2.16477,-1.15162 -2.16477,-0.82554 0,0.32606 -1.03059,-0.0824 -2.29019,-0.90774 -1.25961,-0.82533 -2.93208,-1.50059 -3.71661,-1.50059 -0.78453,0 -1.42642,-0.4878 -1.42642,-1.08401 0,-0.5962 -0.24742,-0.83658 -0.54983,-0.53418 -0.6525,0.6525 -23.00258,-10.31332 -23.45519,-11.50803 -0.17141,-0.45246 -0.69406,-0.5863 -1.16144,-0.29744 -0.46739,0.28886 -0.8498,0.16641 -0.8498,-0.27213 0,-0.43854 -1.46341,-1.32651 -3.25203,-1.97328 -1.78862,-0.64678 -3.25203,-1.59169 -3.25203,-2.09979 0,-0.50812 -0.3548,-0.70458 -0.78844,-0.43657 -0.43364,0.268 -1.61561,-0.28335 -2.6266,-1.22522 -1.01099,-0.94188 -2.74678,-2.00089 -3.85731,-2.35337 -1.11055,-0.35247 -2.01917,-1.0308 -2.01917,-1.5074 0,-0.47659 -0.52824,-0.86654 -1.17385,-0.86654 -1.33576,0 -11.20743,-6.41634 -11.67942,-7.59134 -0.17035,-0.42407 -0.90206,-0.77102 -1.62602,-0.77102 -0.72397,0 -1.3163,-0.41812 -1.3163,-0.92916 0,-0.51103 -0.52692,-0.92915 -1.17094,-0.92915 -0.64401,0 -2.21195,-0.96229 -3.48432,-2.13843 -1.27236,-1.17615 -3.04509,-2.41738 -3.9394,-2.7583 -0.89431,-0.34093 -1.62601,-1.0511 -1.62601,-1.57818 0,-0.52707 -0.53426,-0.95831 -1.18724,-0.95831 -0.65298,0 -1.84225,-0.7317 -2.64283,-1.62601 -0.80058,-0.89431 -2.41047,-2.2532 -3.57753,-3.01975 -6.86335,-4.50796 -18.45902,-14.95813 -35.68014,-32.1554 -15.22136,-15.20028 -20.09461,-20.35781 -20.09461,-21.26684 0,-0.35869 -1.14983,-1.83099 -2.55517,-3.27176 -3.71427,-3.80793 -5.23603,-5.62979 -7.74792,-9.2758 -1.23226,-1.78862 -2.76311,-3.5864 -3.4019,-3.99507 -0.6388,-0.40866 -1.161444,-1.30469 -1.161444,-1.99118 0,-0.68648 -0.627178,-1.48882 -1.393728,-1.78298 -0.766551,-0.29415 -1.393728,-1.17511 -1.393728,-1.95771 0,-0.78259 -0.418119,-1.42289 -0.929153,-1.42289 -0.511033,0 -0.929152,-0.39658 -0.929152,-0.88128 0,-0.4847 -1.045296,-2.00917 -2.32288,-3.3877 -1.277584,-1.37854 -2.322881,-3.07256 -2.322881,-3.76448 0,-0.69193 -0.418118,-1.25806 -0.929152,-1.25806 -0.511033,0 -0.929152,-0.59233 -0.929152,-1.3163 0,-0.72396 -0.337928,-1.45566 -0.750952,-1.62601 -0.985807,-0.40658 -6.934876,-9.13666 -6.226131,-9.13666 0.299975,0 -0.292657,-0.89956 -1.31696,-1.99902 -1.024304,-1.09947 -1.643093,-2.35382 -1.375089,-2.78746 0.268006,-0.43364 0.07524,-0.78844 -0.428367,-0.78844 -0.503608,0 -2.076526,-2.40418 -3.495373,-5.34262 -1.418848,-2.93845 -2.85913,-5.55169 -3.200627,-5.8072 -1.208913,-0.90454 -12.755623,-24.96114 -12.232137,-25.48463 0.2924,-0.2924 -0.02585,-0.53163 -0.707233,-0.53163 -0.681377,0 -0.965666,-0.27321 -0.63175,-0.60712 0.333916,-0.33392 -0.257677,-2.00639 -1.31465,-3.71661 -1.056974,-1.71022 -1.668971,-3.10949 -1.359994,-3.10949 0.308977,0 -0.0765,-0.97414 -0.85663,-2.16477 -0.780124,-1.19061 -1.138195,-2.44497 -0.795713,-2.78745 0.342482,-0.34248 0.134889,-0.62269 -0.461316,-0.62269 -0.596207,0 -0.995182,-0.31359 -0.886611,-0.69687 0.10857,-0.38327 -0.32426,-1.63763 -0.961844,-2.78745 -0.637583,-1.14983 -0.884277,-2.0906 -0.548206,-2.0906 0.336071,0 0.09052,-0.62717 -0.545655,-1.39372 -0.63618,-0.76656 -0.886797,-1.39373 -0.556926,-1.39373 0.329871,0 -0.02587,-0.95485 -0.790536,-2.12187 -0.764665,-1.16702 -1.57947,-3.15309 -1.810679,-4.41347 -0.231207,-1.26039 -0.503712,-2.39614 -0.605566,-2.5239 -0.101854,-0.12775 -0.289719,-0.6504 -0.417478,-1.16144 -0.127758,-0.51103 -0.336817,-1.13821 -0.464576,-1.39372 -0.127758,-0.25552 -0.336817,-0.8827 -0.464576,-1.39373 -0.127758,-0.51104 -0.336817,-1.13821 -0.464576,-1.39373 -0.127758,-0.25552 -0.336817,-0.8827 -0.464576,-1.39373 -0.127758,-0.51103 -0.336818,-1.13821 -0.464576,-1.39373 -0.127758,-0.25551 -0.336818,-0.88269 -0.464576,-1.39373 -0.127758,-0.51103 -0.336818,-1.13821 -0.464576,-1.39372 -0.127759,-0.25552 -0.320664,-0.77817 -0.42868,-1.16144 -0.108015,-0.38328 -0.469003,-1.32405 -0.802195,-2.0906 -0.333192,-0.76655 -0.756913,-2.22996 -0.941604,-3.25203 -0.184691,-1.02207 -0.602809,-2.48548 -0.929152,-3.25203 -0.326343,-0.76655 -0.714843,-2.22997 -0.863333,-3.25203 -0.14849,-1.02207 -0.59615,-2.38096 -0.994801,-3.01975 -0.398651,-0.63879 -0.484264,-1.55067 -0.190251,-2.02639 0.294012,-0.47572 0.08112,-1.1452 -0.473085,-1.48771 -0.554208,-0.34252 -0.788348,-1.19426 -0.520312,-1.89276 0.268037,-0.69849 0.05898,-1.53472 -0.464576,-1.8583 -0.523553,-0.32357 -0.732612,-1.1598 -0.464576,-1.8583 0.268037,-0.69849 0.114089,-1.50067 -0.342108,-1.78262 -0.456197,-0.28194 -0.846599,-1.2361 -0.86756,-2.12034 -0.04555,-1.92146 -0.773228,-6.25349 -1.050441,-6.25349 -0.107806,0 -0.343406,-0.83623 -0.523557,-1.8583 -0.180151,-1.02207 -0.576342,-3.11266 -0.880424,-4.64576 -0.304083,-1.5331 -0.7289,-3.83275 -0.944038,-5.11034 -0.215138,-1.27758 -0.610749,-3.57723 -0.879135,-5.11033 -0.891767,-5.09403 -1.886215,-11.9323 -2.769983,-19.04762 -1.861257,-14.98521 -2.429275,-49.88537 -1.134183,-69.68641 0.676919,-10.34962 0.962144,-13.30279 1.996783,-20.67432 0.269028,-1.91675 0.669126,-4.84358 0.889107,-6.50406 0.219982,-1.66049 0.66816,-4.48248 0.995952,-6.2711 0.327791,-1.78862 0.785296,-4.29733 1.016677,-5.57491 0.440169,-2.43043 1.020912,-5.37849 1.830347,-9.29153 0.264276,-1.27758 0.627898,-3.15911 0.808049,-4.18118 0.180151,-1.02207 0.415752,-1.85831 0.523557,-1.85831 0.107806,0 0.297913,-0.83623 0.422459,-1.8583 0.448459,-3.6802 2.666375,-12.10039 3.448921,-13.09362 0.439675,-0.55805 0.534397,-1.27966 0.210491,-1.60356 -0.323905,-0.32391 -0.06002,-1.2262 0.586407,-2.0051 0.64643,-0.77891 0.863875,-1.41619 0.483211,-1.41619 -0.380663,0 -0.226427,-0.56111 0.342745,-1.24693 0.569174,-0.68581 0.817731,-1.46405 0.55235,-1.72944 -0.265381,-0.26538 0.0168,-1.69032 0.627068,-3.16654 0.610269,-1.47622 1.196879,-2.99762 1.30358,-3.3809 0.106702,-0.38327 0.277338,-0.80139 0.379191,-0.92915 0.101855,-0.12776 0.351856,-1.11605 0.55556,-2.19622 0.203703,-1.08015 0.869304,-3.17075 1.479113,-4.64576 0.609809,-1.475 1.196044,-2.99542 1.302745,-3.37869 0.106701,-0.38328 0.298531,-0.90593 0.42629,-1.16144 0.127758,-0.25552 0.336817,-0.8827 0.464576,-1.39373 0.127758,-0.51103 0.315623,-1.03368 0.417477,-1.16144 0.101855,-0.12776 0.373737,-1.25944 0.604185,-2.51483 0.230446,-1.25541 0.862265,-2.55651 1.404042,-2.89134 0.541775,-0.33484 0.949335,-0.87564 0.905687,-1.20177 -0.04365,-0.32615 -0.02709,-0.80205 0.03679,-1.05757 0.06388,-0.25551 0.180126,-0.77816 0.258327,-1.16144 0.62053,-3.04134 3.88901,-10.45296 4.609697,-10.45296 0.495254,0 0.636428,-0.26403 0.313718,-0.58674 -0.322708,-0.32271 -0.09451,-1.47254 0.507119,-2.55517 0.601623,-1.08264 1.005031,-2.28201 0.89646,-2.66529 -0.10857,-0.38327 0.290405,-0.69686 0.886611,-0.69686 0.596206,0 0.820245,-0.26377 0.497863,-0.58615 -0.322381,-0.32238 0.652332,-2.93562 2.166029,-5.8072 1.513697,-2.87158 2.753073,-5.7437 2.754169,-6.38249 0.0011,-0.6388 0.444788,-1.16144 0.985981,-1.16144 0.541193,0 0.725577,-0.41812 0.40974,-0.92916 -0.315836,-0.51103 -0.106777,-0.92915 0.464576,-0.92915 0.571354,0 0.780413,-0.41812 0.464577,-0.92915 -0.315837,-0.51103 -0.106778,-0.92915 0.464576,-0.92915 0.571353,0 0.780412,-0.41812 0.464576,-0.92916 -0.315837,-0.51103 -0.208393,-0.92915 0.238763,-0.92915 0.447156,0 1.766164,-2.29965 2.931128,-5.11033 1.164964,-2.81069 2.412263,-5.11034 2.771777,-5.11034 0.359514,0 1.182838,-1.46342 1.829612,-3.25203 0.646772,-1.78862 1.521677,-3.25204 1.944232,-3.25204 0.422555,0 1.030635,-1.04529 1.351288,-2.32288 0.320653,-1.27758 0.993159,-2.32288 1.494456,-2.32288 0.501297,0 0.91145,-0.62717 0.91145,-1.39373 0,-0.76655 0.442795,-1.39372 0.983988,-1.39372 0.541193,0 0.725577,-0.41812 0.40974,-0.92916 -0.315836,-0.51103 -0.131453,-0.92915 0.40974,-0.92915 0.541193,0 0.983988,-0.62718 0.983988,-1.39373 0,-0.76655 0.418119,-1.39372 0.929152,-1.39372 0.511034,0 0.929153,-0.62718 0.929153,-1.39373 0,-0.76655 0.418118,-1.39373 0.929152,-1.39373 0.511033,0 0.929152,-0.62718 0.929152,-1.39373 0,-0.76655 0.418118,-1.39373 0.929152,-1.39373 0.511034,0 0.929152,-0.54834 0.929152,-1.21852 0,-0.67019 0.836237,-2.11612 1.858304,-3.21319 1.022068,-1.09706 1.858305,-2.20897 1.858305,-2.47091 0,-0.96504 5.957717,-8.89296 6.682927,-8.89296 0.412659,0 0.75029,-0.6403 0.75029,-1.42289 0,-0.7826 0.627179,-1.66356 1.393729,-1.95771 0.76655,-0.29416 1.39373,-0.92352 1.39373,-1.39858 0,-1.1617 9.42843,-12.87471 10.36355,-12.87471 0.4062,0 1.33536,-1.15409 2.06477,-2.56462 1.36664,-2.64278 31.40383,-33.26781 38.73595,-39.49402 2.26615,-1.92436 5.18132,-4.5376 6.47815,-5.8072 1.29683,-1.26961 2.7123,-2.30838 3.14548,-2.30838 0.43319,0 1.75291,-0.94077 2.93269,-2.09059 4.1404,-4.03528 5.66213,-5.34263 6.21871,-5.34263 0.30887,0 1.93491,-1.25435 3.61345,-2.787454 1.67853,-1.533101 3.54113,-2.787456 4.13912,-2.787456 0.59798,0 1.32791,-0.627178 1.62207,-1.393729 0.29416,-0.76655 1.17512,-1.393728 1.95772,-1.393728 0.78259,0 1.42287,-0.418118 1.42287,-0.929152 0,-0.511034 0.62719,-0.929152 1.39374,-0.929152 0.76654,0 1.39373,-0.418119 1.39373,-0.929152 0,-0.511034 0.58245,-0.929153 1.29432,-0.929153 0.71188,0 1.54516,-0.653678 1.85174,-1.452619 0.30659,-0.798941 0.97849,-1.192384 1.49314,-0.874317 0.51464,0.318067 0.93571,0.135509 0.93571,-0.405684 0,-0.541193 0.62718,-0.983988 1.39373,-0.983988 0.76655,0 1.39373,-0.418119 1.39373,-0.929152 0,-0.511034 0.4356,-0.929152 0.968,-0.929152 0.5324,0 1.85008,-0.821779 2.92818,-1.826175 1.07808,-1.004395 2.31496,-1.606897 2.7486,-1.338892 0.43364,0.268006 0.78844,0.102589 0.78844,-0.367589 0,-0.47018 1.98606,-1.853742 4.41347,-3.074581 2.42741,-1.22084 4.63718,-2.51708 4.91061,-2.880534 0.27343,-0.363454 2.15496,-1.351213 4.18119,-2.19502 2.02622,-0.843807 3.8931,-1.853733 4.14862,-2.244277 0.47246,-0.722147 23.02782,-12.219454 23.45822,-11.957528 0.12934,0.07871 2.01216,-0.763447 4.18405,-1.871465 2.1719,-1.108017 3.9489,-1.78738 3.9489,-1.509696 0,0.277683 0.97414,-0.133403 2.16477,-0.913528 1.19061,-0.780124 2.44497,-1.138195 2.78745,-0.795713 0.34248,0.342482 0.62269,0.134889 0.62269,-0.461316 0,-0.596207 0.31359,-0.995182 0.69687,-0.886611 0.38326,0.10857 1.63763,-0.32426 2.78744,-0.961844 1.14984,-0.637583 2.0906,-0.884277 2.0906,-0.548206 0,0.336071 0.62717,0.09052 1.39372,-0.545655 0.76656,-0.63618 1.39373,-0.886797 1.39373,-0.556926 0,0.329871 0.95485,-0.02587 2.12187,-0.790536 1.16702,-0.764665 3.15309,-1.57947 4.41347,-1.810679 1.26039,-0.231207 2.39614,-0.503712 2.52391,-0.605566 0.12775,-0.101854 0.54586,-0.252271 0.92915,-0.334258 0.38326,-0.08199 1.53309,-0.607432 2.55516,-1.167654 1.02206,-0.560222 3.32173,-1.358038 5.11033,-1.772924 4.58419,-1.063342 4.59495,-1.066129 5.11034,-1.323826 0.25552,-0.127759 0.77817,-0.320665 1.16144,-0.42868 0.38329,-0.108015 1.32405,-0.469003 2.0906,-0.802195 0.76655,-0.333192 2.22996,-0.756913 3.25204,-0.941604 1.02206,-0.184691 2.48548,-0.595587 3.25203,-0.913104 0.76655,-0.317516 2.43902,-0.774197 3.71661,-1.014846 1.27758,-0.240649 3.68176,-0.850728 5.34262,-1.35573 1.66086,-0.505003 3.01975,-0.723603 3.01975,-0.485779 0,0.237823 0.79078,0.0092 1.75729,-0.508067 0.96651,-0.517262 3.37069,-1.184427 5.34263,-1.482589 1.97193,-0.298162 4.52497,-0.736113 5.67343,-0.973223 1.14845,-0.237111 3.11062,-0.590513 4.36038,-0.785339 1.24975,-0.194825 2.65859,-0.592974 3.13073,-0.884774 0.47214,-0.2918 2.90021,-0.786614 5.39571,-1.099585 2.4955,-0.312972 5.79163,-0.746563 7.32473,-0.963536 3.92183,-0.555041 9.65188,-1.31742 13.4727,-1.792534 18.8532,-2.344368 64.7705,-2.344368 83.6237,0 6.39398,0.795084 14.80972,2.04473 19.04762,2.828368 1.5331,0.283488 3.83274,0.686278 5.11032,0.895088 1.27759,0.208809 3.36818,0.591154 4.64576,0.849655 6.63944,1.343395 8.02936,1.576567 9.50552,1.594654 0.88424,0.01083 1.8539,0.418031 2.15479,0.904883 0.30089,0.486851 0.87677,0.681419 1.27974,0.432373 0.40297,-0.249046 2.15108,-0.02256 3.8847,0.503315 1.73361,0.525868 4.19732,1.153019 5.4749,1.393668 1.27759,0.240649 2.95006,0.702934 3.71661,1.027299 1.70687,0.722258 1.52812,0.675356 5.9064,1.54974 1.97094,0.393615 4.68872,1.175954 6.03949,1.738533 1.35078,0.562578 2.76957,1.11017 3.15285,1.216871 0.38327,0.106702 0.80139,0.278257 0.92915,0.381236 0.12775,0.102979 0.93904,0.323646 1.80287,0.490371 2.19159,0.422991 8.45936,2.473686 9.57924,3.134134 0.51104,0.301385 1.75131,0.67578 2.75618,0.831988 1.00486,0.156208 2.78188,0.909651 3.94889,1.674316 1.16702,0.764666 2.12187,1.120407 2.12187,0.790536 0,-0.329871 0.62717,-0.07925 1.39373,0.556926 0.76655,0.63618 1.39372,0.848349 1.39372,0.471484 0,-0.376864 1.0453,-3.03e-4 2.32289,0.836802 1.27759,0.837106 2.32288,1.255224 2.32288,0.929152 0,-0.326072 1.0453,0.09205 2.32288,0.929153 1.27759,0.837105 2.32289,1.292574 2.32289,1.012153 0,-0.280421 1.35888,0.214025 3.01974,1.098769 1.66086,0.884743 3.33333,1.522658 3.71661,1.417589 0.38327,-0.105071 0.69686,0.296768 0.69686,0.892974 0,0.596206 0.23071,0.853306 0.51268,0.571332 0.48425,-0.484242 28.23084,12.852302 29.22019,14.044835 0.25552,0.307991 2.86876,1.799674 5.8072,3.314851 2.93845,1.515177 5.34263,3.037793 5.34263,3.383593 0,0.3458 0.94908,0.866933 2.10908,1.158072 1.15999,0.291141 2.93699,1.277235 3.9489,2.19132 1.01188,0.914086 2.98257,2.251499 4.37928,2.972029 1.39672,0.72053 3.36531,2.079415 4.37463,3.019744 1.00932,0.94033 2.27075,1.70969 2.80314,1.70969 0.53239,0 0.968,0.418119 0.968,0.929153 0,0.511033 0.56612,0.929152 1.25805,0.929152 0.69192,0 2.38595,1.045296 3.76449,2.32288 1.37854,1.277584 2.86816,2.322881 3.31028,2.322881 0.44212,0 0.94322,0.313588 1.11357,0.696864 0.17034,0.383275 2.08672,1.903554 4.25861,3.378396 2.1719,1.47484 3.94889,3.04279 3.94889,3.48432 0,0.44153 0.47141,0.80279 1.04756,0.80279 3.33307,0 46.67817,41.93754 57.48903,55.62218 1.27758,1.61719 3.26364,3.84615 4.41347,4.95324 1.14982,1.10709 2.09059,2.56467 2.09059,3.23906 0,0.67439 0.43124,1.22617 0.95831,1.22617 0.52708,0 1.22684,0.69976 1.55504,1.55504 0.3282,0.85526 1.25584,2.28871 2.06143,3.18543 2.51547,2.80002 3.78759,4.45535 3.78759,4.92854 0,0.25076 1.0453,1.58381 2.32288,2.96235 1.27759,1.37853 2.32288,3.07256 2.32288,3.76448 0,0.69193 0.41812,1.25805 0.92916,1.25805 0.51103,0 0.92916,0.62718 0.92916,1.39373 0,0.76655 0.4181,1.39373 0.92915,1.39373 0.51103,0 0.92915,0.62717 0.92915,1.39372 0,0.76656 0.41812,1.39373 0.92915,1.39373 0.51104,0 0.92915,0.43561 0.92915,0.968 0,0.53241 0.78083,1.80613 1.73516,2.83048 0.95434,1.02436 2.52228,3.41107 3.48432,5.30378 0.96204,1.89272 2.00016,3.65036 2.30694,3.90587 0.96993,0.80788 3.09749,5.08057 2.89166,5.8072 -0.10858,0.38328 0.16999,0.69687 0.61903,0.69687 0.44903,0 1.36606,1.35888 2.03784,3.01974 0.67178,1.66086 1.50715,3.22881 1.85638,3.48432 1.2713,0.93014 11.9039,23.02928 11.34772,23.58546 -0.31488,0.31487 -0.0847,0.5725 0.5115,0.5725 0.59621,0 0.9995,0.31359 0.8962,0.69686 -0.1033,0.38328 0.74143,2.47387 1.87718,4.64576 1.13576,2.1719 1.83781,3.9489 1.56012,3.9489 -0.27768,0 0.11154,0.94077 0.86493,2.09059 0.7534,1.14983 1.40838,2.39659 1.45552,2.7706 0.0471,0.374 0.74564,2.25553 1.55221,4.18118 0.80659,1.92565 1.54024,3.9193 1.63034,4.43034 0.0901,0.51103 0.66417,1.83832 1.2757,2.94953 0.61152,1.11121 1.29205,2.99274 1.51228,4.18118 0.22023,1.18845 0.48375,2.26534 0.58561,2.3931 0.10185,0.12775 0.27356,0.54587 0.38158,0.92915 0.10801,0.38327 0.50607,1.39592 0.88457,2.25032 0.37851,0.8544 0.83304,2.31782 1.0101,3.25203 0.17706,0.93422 0.40618,1.80311 0.50916,1.93087 0.10298,0.12775 0.29176,0.6504 0.41952,1.16144 0.12776,0.51103 0.33682,1.13821 0.46458,1.39372 0.12775,0.25552 0.33681,0.8827 0.46457,1.39373 0.12776,0.51104 0.33682,1.13821 0.46458,1.39373 0.12776,0.25552 0.32066,0.77817 0.42868,1.16144 0.10801,0.38328 0.469,1.32404 0.80219,2.09059 0.3332,0.76655 0.7273,2.22997 0.87578,3.25204 0.14849,1.02206 0.61335,2.40877 1.03302,3.08156 0.41966,0.67279 0.51571,1.47056 0.21346,1.77281 -0.30225,0.30225 -0.17436,1.00615 0.28419,1.5642 0.45857,0.55806 1.05741,2.269 1.33077,3.8021 0.27336,1.5331 0.76826,3.83275 1.09979,5.11034 0.33152,1.27758 0.7395,3.15911 0.90662,4.18118 0.16712,1.02207 0.39206,1.8583 0.49987,1.8583 0.10781,0 0.3434,0.83624 0.52356,1.85831 0.18015,1.02207 0.54376,2.9036 0.80804,4.18118 1.35914,6.57045 2.36959,11.84388 2.93761,15.33101 0.24972,1.53311 0.67038,4.04182 0.93481,5.57492 4.75143,27.54868 4.75143,83.02042 0,110.5691 -0.26443,1.5331 -0.68509,4.04181 -0.93481,5.57492 -0.24973,1.5331 -0.67273,3.83275 -0.94001,5.11033 -0.26727,1.27759 -0.71796,3.57724 -1.00152,5.11034 -0.28357,1.5331 -0.7318,3.83275 -0.99608,5.11034 -0.26428,1.27758 -0.62789,3.15911 -0.80804,4.18118 -0.18016,1.02207 -0.41575,1.85831 -0.52356,1.85831 -0.10781,0 -0.33275,0.83623 -0.49987,1.8583 -0.16712,1.02207 -0.55039,2.79907 -0.85172,3.9489 -0.53633,2.04657 -0.84454,3.41982 -2.03321,9.05923 -0.32315,1.5331 -1.00858,3.3101 -1.52318,3.9489 -0.51459,0.63879 -0.62418,1.16144 -0.24351,1.16144 0.38066,0 0.22642,0.56111 -0.34275,1.24693 -0.56917,0.68581 -0.81773,1.46405 -0.55235,1.72944 0.26538,0.26538 -0.0168,1.69032 -0.62707,3.16654 -0.61026,1.47622 -1.19688,2.99762 -1.30358,3.3809 -0.10669,0.38327 -0.29853,0.90592 -0.42628,1.16144 -0.12776,0.25551 -0.33682,0.88269 -0.46458,1.39372 -0.12776,0.51104 -0.33682,1.13822 -0.46458,1.39373 -0.12776,0.25552 -0.33681,0.8827 -0.46457,1.39373 -0.12776,0.51103 -0.33682,1.13821 -0.46458,1.39373 -0.12776,0.25552 -0.33682,0.88269 -0.46458,1.39373 -0.12775,0.51103 -0.33681,1.13821 -0.46457,1.39373 -0.12776,0.25551 -0.33682,0.88269 -0.46458,1.39372 -0.12776,0.51104 -0.31562,1.03369 -0.41747,1.16144 -0.10186,0.12776 -0.37436,1.26351 -0.60557,2.5239 -0.23121,1.26038 -1.04601,3.24645 -1.81068,4.41347 -0.76467,1.16702 -1.15689,2.12187 -0.87162,2.12187 0.28528,0 10e-4,0.94076 -0.63075,2.09059 -0.6322,1.14983 -1.22317,2.50871 -1.31327,3.01974 -0.0901,0.51104 -0.82375,2.50469 -1.63034,4.43034 -0.80658,1.92565 -1.38368,3.59812 -1.28246,3.71661 0.10123,0.11848 -0.97986,2.20149 -2.40241,4.6289 -1.42256,2.42741 -2.35656,4.41347 -2.07557,4.41347 0.5982,0 -10.57875,22.54197 -11.5175,23.2288 -0.34923,0.25552 -1.1846,1.82346 -1.85638,3.48432 -0.67178,1.66086 -1.61348,3.01975 -2.09268,3.01975 -0.47919,0 -0.61285,0.41812 -0.29701,0.92915 0.31583,0.51103 0.17678,0.92915 -0.30901,0.92915 -0.4858,0 -1.14562,1.0453 -1.46627,2.32288 -0.32066,1.27759 -0.99316,2.32288 -1.49446,2.32288 -0.50129,0 -0.91145,0.59732 -0.91145,1.32736 0,0.73005 -0.52265,1.88625 -1.16144,2.56935 -0.63879,0.68308 -1.94856,2.78418 -2.91061,4.6691 -0.96203,1.88492 -2.42544,4.17819 -3.25203,5.09617 -0.82657,0.91796 -2.09616,2.81886 -2.82131,4.2242 -0.72515,1.40534 -1.66592,2.55517 -2.09059,2.55517 -0.42468,0 -0.77215,0.52692 -0.77215,1.17094 0,0.64401 -0.96229,2.21195 -2.13843,3.48432 -1.17615,1.27236 -2.41738,3.04509 -2.7583,3.9394 -0.34093,0.89431 -1.0511,1.62601 -1.57818,1.62601 -0.52707,0 -0.95831,0.6403 -0.95831,1.42289 0,0.7826 -0.62717,1.66356 -1.39372,1.95771 -0.76655,0.29416 -1.39963,1.01274 -1.40685,1.59686 -0.007,0.58411 -1.64718,2.94357 -3.64439,5.24322 -1.99719,2.29965 -4.81359,5.58902 -6.25866,7.30973 -8.39689,9.99855 -32.60529,34.7524 -41.71702,42.65697 -2.51929,2.18552 -5.41675,4.73415 -6.43882,5.66362 -4.69972,4.27396 -15.17837,12.19778 -16.13063,12.19778 -0.58228,0 -1.05869,0.33581 -1.05869,0.74624 0,0.93748 -10.71342,8.54529 -12.03358,8.54529 -0.536,0 -0.97455,0.34746 -0.97455,0.77214 0,0.42468 -1.14982,1.36544 -2.55516,2.09059 -1.40535,0.72515 -3.3502,2.0357 -4.3219,2.91234 -0.97171,0.87663 -2.12153,1.3746 -2.55517,1.1066 -0.43364,-0.26801 -0.78844,-0.0445 -0.78844,0.4967 0,0.5412 -0.62718,0.98399 -1.39373,0.98399 -0.76655,0 -1.39373,0.32233 -1.39373,0.71628 0,0.39394 -1.98606,1.75283 -4.41347,3.01974 -2.42741,1.26691 -4.62253,2.55872 -4.87805,2.87069 -0.66393,0.81061 -6.36814,3.67059 -7.08731,3.55343 -0.33149,-0.054 -0.85852,0.30385 -1.17118,0.79521 -0.80345,1.2627 -21.47133,11.51094 -21.4886,10.6552 -0.008,-0.38754 -0.36327,-0.15417 -0.78988,0.51859 -0.42661,0.67277 -1.36098,1.34236 -2.07637,1.48798 -0.71539,0.14562 -3.80942,1.41927 -6.87562,2.83034 -3.06621,1.41106 -5.99304,2.64311 -6.50407,2.73789 -0.51103,0.0948 -1.86992,0.68957 -3.01974,1.32177 -1.14983,0.63219 -2.0906,0.87447 -2.0906,0.5384 0,-0.33607 -0.62717,-0.0905 -1.39372,0.54566 -0.76656,0.63618 -1.39373,0.8868 -1.39373,0.55692 0,-0.32987 -1.0453,0.0851 -2.32288,0.92225 -1.27759,0.8371 -2.32288,1.21367 -2.32288,0.8368 0,-0.37686 -0.62718,-0.1647 -1.39373,0.47148 -0.76655,0.63619 -1.39373,0.84524 -1.39373,0.46458 0,-0.38066 -0.62718,-0.1716 -1.39373,0.46458 -0.76655,0.63618 -1.39373,0.84524 -1.39373,0.46457 0,-0.38066 -0.62717,-0.1716 -1.39372,0.46458 -0.76656,0.63618 -1.39373,0.84524 -1.39373,0.46457 0,-0.38066 -0.62718,-0.1716 -1.39373,0.46458 -0.76655,0.63618 -1.39373,0.84524 -1.39373,0.46458 0,-0.38067 -0.62718,-0.17161 -1.39373,0.46457 -0.76655,0.63618 -1.39373,0.84524 -1.39373,0.46458 0,-0.38067 -0.62717,-0.17161 -1.39372,0.46458 -0.76655,0.63618 -1.39373,0.84524 -1.39373,0.46457 0,-0.38066 -0.53308,-0.24971 -1.1846,0.29101 -0.65153,0.54072 -2.21947,1.12516 -3.48432,1.29874 -1.26485,0.17359 -2.7298,0.58607 -3.25544,0.91664 -1.12668,0.70854 -15.66086,4.48825 -19.02105,4.94654 -1.27759,0.17426 -2.32288,0.399 -2.32288,0.49942 0,0.10044 -0.83624,0.33 -1.85831,0.51016 -1.02207,0.18015 -2.9036,0.54376 -4.18118,0.80804 -3.47343,0.7185 -7.61101,1.50611 -10.22068,1.94557 -1.27758,0.21514 -3.57723,0.63592 -5.11033,0.93508 -1.53311,0.29916 -4.06703,0.64519 -5.63095,0.76895 -1.56392,0.12376 -3.2656,0.4859 -3.78151,0.80476 -1.12315,0.69414 -13.54952,1.79714 -24.5016,2.17482 -30.07444,1.03711 -51.65511,1.40084 -52.15683,0.87909 z m 52.62141,-184.98097 c 8.48476,-0.99811 14.23242,-2.00384 18.05693,-3.15961 1.75477,-0.5303 3.38877,-0.7659 3.63111,-0.52355 0.24235,0.24234 0.90764,0.053 1.47843,-0.42068 0.57079,-0.47372 2.07267,-1.03189 3.33752,-1.24039 1.26485,-0.2085 3.50655,-0.8739 4.98156,-1.47868 1.47501,-0.60477 3.5656,-1.26626 4.64576,-1.46996 1.08016,-0.2037 2.06846,-0.40144 2.19621,-0.43942 0.12776,-0.038 0.49914,-0.0333 0.82528,0.0103 0.32613,0.0436 0.8864,-0.39542 1.24503,-0.9757 0.35864,-0.58028 1.55521,-1.12309 2.65906,-1.20624 1.10384,-0.0831 2.00699,-0.505 2.00699,-0.93744 0,-0.43245 0.41812,-0.52785 0.92915,-0.21202 0.51103,0.31584 0.92915,0.13146 0.92915,-0.40973 0,-0.5412 0.31359,-0.88457 0.69687,-0.76307 1.17517,0.37256 6.73635,-2.24934 6.73635,-3.17594 0,-0.4792 0.41812,-0.61285 0.92915,-0.29702 0.51103,0.31584 0.92915,0.15963 0.92915,-0.34713 0,-0.50675 0.94077,-1.21496 2.0906,-1.57379 1.14982,-0.35883 2.29965,-0.94104 2.55516,-1.29379 0.38219,-0.52763 5.47046,-4.17219 13.67283,-9.79342 4.69805,-3.21964 21.63496,-20.32619 21.63496,-21.85165 0,-0.49326 0.83623,-1.41906 1.8583,-2.05735 1.02207,-0.63829 1.8583,-1.70026 1.8583,-2.35992 0,-0.65966 0.62718,-1.44006 1.39373,-1.73421 0.76655,-0.29416 1.39373,-1.11727 1.39373,-1.82915 0,-0.71187 0.41812,-1.29431 0.92915,-1.29431 0.51104,0 0.92916,-0.62718 0.92916,-1.39373 0,-0.76655 0.41811,-1.39373 0.92915,-1.39373 0.51103,0 0.92915,-0.38815 0.92915,-0.86256 0,-1.1479 6.74061,-12.52394 7.65651,-12.92179 0.39459,-0.17141 0.4811,-0.69406 0.19223,-1.16144 -0.28885,-0.46739 -0.0577,-0.8498 0.51363,-0.8498 0.57135,0 0.78041,-0.41811 0.46457,-0.92915 -0.31583,-0.51103 -0.10677,-0.92915 0.46458,-0.92915 0.57136,0 0.78041,-0.41812 0.46458,-0.92915 -0.31584,-0.51104 -0.10678,-0.92916 0.46457,-0.92916 0.57136,0 0.78042,-0.41811 0.46458,-0.92915 -0.31584,-0.51103 -0.0618,-0.92915 0.5646,-0.92915 0.62637,0 0.89141,-0.24743 0.58899,-0.54986 -0.30242,-0.30242 0.29525,-2.49754 1.32817,-4.87805 3.16738,-7.29965 3.85912,-8.9471 4.06059,-9.67081 0.1067,-0.38328 0.29853,-0.90593 0.42629,-1.16144 0.12776,-0.25552 0.33682,-0.8827 0.46458,-1.39373 0.12775,-0.51103 0.31893,-1.03368 0.42483,-1.16144 0.10591,-0.12776 0.39414,-1.47622 0.64051,-2.99659 0.24639,-1.52036 0.89038,-3.29737 1.4311,-3.9489 0.54072,-0.65152 0.76072,-1.18459 0.48888,-1.18459 -0.27184,0 0.11244,-2.19512 0.85395,-4.87805 2.15043,-7.78075 2.28457,-8.38538 2.78289,-12.54355 l 0.47322,-3.9489 H 521.29473 483.5777 l -1.06059,2.55517 c -0.58332,1.40534 -1.14788,2.86875 -1.25459,3.25203 -0.10669,0.38328 -0.29852,0.90592 -0.42628,1.16144 -0.12776,0.25552 -0.33682,0.88269 -0.46458,1.39373 -0.12776,0.51103 -0.33682,1.13821 -0.46458,1.39373 -0.12775,0.25551 -0.33681,0.88269 -0.46457,1.39372 -0.12776,0.51104 -0.33682,1.13822 -0.46458,1.39373 -0.12776,0.25552 -0.33682,0.8827 -0.46457,1.39373 l -0.34844,1.39373 c -0.0639,0.25552 -0.0116,0.60937 0.11615,0.78635 0.12776,0.17697 -0.34156,1.0132 -1.04292,1.8583 -0.70137,0.8451 -1.00422,1.53653 -0.673,1.53653 0.3312,0 -0.11743,1.35889 -0.99697,3.01975 -0.87956,1.66086 -1.69873,3.60506 -1.8204,4.32045 -0.12166,0.7154 -0.70284,1.59839 -1.2915,1.9622 -0.58866,0.36381 -0.9959,0.82378 -0.905,1.02216 0.34318,0.74896 -2.19708,5.47103 -2.94317,5.47103 -0.429,0 -0.78,0.62718 -0.78,1.39373 0,0.76655 -0.41812,1.39373 -0.92916,1.39373 -0.51103,0 -0.92915,0.43576 -0.92915,0.96837 0,0.5326 -0.52265,1.6408 -1.16144,2.46266 -1.27023,1.63427 -10.54102,10.95555 -12.77584,12.84543 -2.09535,1.77193 -13.68731,7.9988 -15.55573,8.35609 -0.89847,0.1718 -1.73811,0.39663 -1.86587,0.49961 -0.12776,0.10298 -0.65041,0.29176 -1.16144,0.41952 -0.51104,0.12776 -1.13821,0.33682 -1.39373,0.46458 -0.25552,0.12776 -0.8827,0.33681 -1.39373,0.46457 -0.51103,0.12776 -1.03368,0.33792 -1.16144,0.46701 -1.65431,1.67168 -30.34969,2.84994 -38.7921,1.59285 -1.78862,-0.26633 -4.29733,-0.75866 -5.57491,-1.09408 -1.27759,-0.33541 -2.95006,-0.76246 -3.71661,-0.94901 -0.76655,-0.18653 -1.39373,-0.40223 -1.39373,-0.4793 0,-0.0771 -0.95325,-0.31741 -2.11833,-0.53407 -2.17683,-0.40481 -11.45295,-4.83242 -12.28353,-5.86309 -0.25552,-0.31707 -1.70574,-1.203 -3.22271,-1.96873 -3.61707,-1.82582 -21.8644,-19.90803 -21.8644,-21.66655 0,-0.74908 -0.56593,-1.57913 -1.25762,-1.84456 -1.26002,-0.48351 -10.44692,-17.37011 -9.44995,-17.37011 0.29136,0 -0.15516,-1.04529 -0.99227,-2.32288 -0.83711,-1.27758 -1.21367,-2.32288 -0.83681,-2.32288 0.37687,0 0.1647,-0.62718 -0.47148,-1.39373 -0.63618,-0.76655 -0.84524,-1.39372 -0.46457,-1.39372 0.38066,0 0.24971,-0.53308 -0.29101,-1.1846 -0.54072,-0.65153 -1.12516,-2.21947 -1.29875,-3.48432 -0.17358,-1.26485 -0.64328,-2.82237 -1.04378,-3.46117 -0.40049,-0.63879 -0.48762,-1.55067 -0.1936,-2.02638 0.29402,-0.47573 0.13624,-1.11114 -0.35062,-1.41203 -0.48685,-0.30089 -0.89405,-1.27055 -0.90488,-2.15479 -0.0108,-0.88425 -0.27793,-2.86208 -0.59355,-4.39518 -4.5785,-22.23975 -4.97511,-55.90927 -0.95768,-81.30081 0.20215,-1.27759 0.59735,-4.10059 0.87825,-6.27334 0.28089,-2.17276 0.92847,-4.73102 1.43904,-5.68504 0.51057,-0.95401 0.67438,-1.9885 0.36403,-2.29886 -0.31037,-0.31036 -0.0902,-1.13552 0.4892,-1.83367 0.57943,-0.69817 0.80619,-1.51669 0.50394,-1.81895 -0.30225,-0.30225 -0.2062,-1.10002 0.21346,-1.77281 0.41967,-0.67279 0.88798,-2.02668 1.04069,-3.00864 0.15272,-0.98196 0.73866,-2.34084 1.3021,-3.01975 0.56343,-0.67889 0.71297,-1.23436 0.33231,-1.23436 -0.38067,0 -0.17161,-0.62717 0.46457,-1.39372 0.63619,-0.76655 0.84835,-1.39373 0.47148,-1.39373 -0.37686,0 -2.9e-4,-1.0453 0.83681,-2.32288 0.83711,-1.27759 1.29729,-2.32288 1.02264,-2.32288 -0.75629,0 5.21222,-11.56789 6.1533,-11.92605 0.45038,-0.17141 0.58253,-0.69406 0.29367,-1.16144 -0.28885,-0.46738 -0.0824,-0.8498 0.45879,-0.8498 0.54119,0 0.98399,-0.62717 0.98399,-1.39372 0,-0.76655 0.41812,-1.39373 0.92915,-1.39373 0.51103,0 0.92915,-0.62718 0.92915,-1.39373 0,-0.76655 0.41812,-1.39373 0.92915,-1.39373 0.51104,0 0.92916,-0.62718 0.92916,-1.39373 0,-0.76655 0.41812,-1.39372 0.92915,-1.39372 0.51103,0 0.92915,-0.50794 0.92915,-1.12877 0,-1.21927 1.08191,-2.49092 8.02296,-9.43008 6.15465,-6.15297 7.28958,-7.09505 8.54744,-7.09505 0.59592,0 1.08349,-0.41015 1.08349,-0.91145 0,-0.50129 1.0453,-1.1738 2.32288,-1.49446 1.27759,-0.32065 2.32288,-0.98046 2.32288,-1.46626 0,-0.48579 0.41812,-0.62485 0.92915,-0.30901 0.51104,0.31584 0.92916,0.10678 0.92916,-0.46458 0,-0.57135 0.41812,-0.78041 0.92915,-0.46457 0.51103,0.31583 0.92915,0.10678 0.92915,-0.46458 0,-0.57135 0.41812,-0.78041 0.92915,-0.46457 0.51104,0.31583 0.92916,0.10677 0.92916,-0.46458 0,-0.57135 0.41811,-0.78041 0.92915,-0.46458 0.51103,0.31584 0.92915,0.13146 0.92915,-0.40973 0,-0.5412 0.31359,-0.89517 0.69686,-0.7866 0.38328,0.10857 1.63763,-0.32425 2.78746,-0.96184 1.14983,-0.63758 2.09059,-0.88427 2.09059,-0.54821 0,0.33608 0.53564,0.16651 1.1903,-0.37682 4.35249,-3.61225 30.8578,-4.53394 47.59019,-1.65489 1.02207,0.17586 1.8583,0.40417 1.8583,0.50738 0,0.10319 0.88377,0.35429 1.96394,0.55799 1.08015,0.20371 3.17075,0.8693 4.64576,1.47912 1.475,0.6098 2.92484,1.14377 3.22185,1.1866 1.68804,0.24337 10.14523,4.70071 10.14523,5.34702 0,0.42367 0.6292,0.77032 1.39822,0.77032 2.22246,0 16.71062,15.15845 18.9915,19.87014 1.1389,2.35263 2.45947,4.51778 2.93462,4.81145 0.47516,0.29366 0.62337,0.92315 0.32935,1.39887 -0.29401,0.47572 -0.0918,0.86495 0.44942,0.86495 0.5412,0 0.98399,0.64189 0.98399,1.42642 0,0.78453 0.67527,2.457 1.50059,3.71661 0.82533,1.2596 1.23381,2.29019 0.90774,2.29019 -0.32608,0 0.092,1.0453 0.92915,2.32288 0.8371,1.27758 1.21367,2.32288 0.83681,2.32288 -0.37687,0 -0.16471,0.62718 0.47147,1.39373 0.63619,0.76655 0.84525,1.39373 0.46458,1.39373 -0.38066,0 -0.1716,0.62717 0.46458,1.39372 0.63618,0.76656 0.84524,1.39373 0.46457,1.39373 -0.38066,0 -0.1716,0.62718 0.46458,1.39373 0.63618,0.76655 0.84524,1.39373 0.46458,1.39373 -0.38067,0 -0.22643,0.56111 0.34274,1.24693 0.56917,0.68581 0.86775,1.41752 0.66349,1.62602 -0.20426,0.20849 16.96566,0.53861 38.15536,0.73359 l 38.52674,0.35451 -0.38326,-6.03462 c -0.21078,-3.31903 -0.6234,-6.42317 -0.91691,-6.89809 -0.29351,-0.47491 -0.75839,-2.51816 -1.03306,-4.54056 -0.49775,-3.66486 -1.15422,-6.97611 -1.55794,-7.85828 -0.11694,-0.25552 -0.29279,-0.88269 -0.39078,-1.39373 -0.098,-0.51103 -0.67281,-2.13598 -1.27737,-3.61098 -0.60455,-1.47501 -1.21285,-3.35654 -1.35176,-4.18119 -0.13891,-0.82465 -0.82541,-2.54465 -1.52558,-3.82223 -0.70015,-1.27758 -1.14053,-2.32288 -0.97862,-2.32288 0.16193,0 -0.58574,-1.72523 -1.66148,-3.83385 -1.07573,-2.10862 -1.69505,-4.09468 -1.37626,-4.41347 0.31879,-0.31879 0.0671,-0.57963 -0.55922,-0.57963 -0.62637,0 -0.88043,-0.41811 -0.5646,-0.92915 0.31584,-0.51103 0.15852,-0.92915 -0.3496,-0.92915 -0.50811,0 -1.45302,-1.46341 -2.09979,-3.25203 -0.64677,-1.78862 -1.53475,-3.25204 -1.97329,-3.25204 -0.43853,0 -0.53891,-0.41811 -0.22308,-0.92915 0.31584,-0.51103 0.13146,-0.92915 -0.40973,-0.92915 -0.5412,0 -0.984,-0.4356 -0.984,-0.968 0,-0.5324 -0.83623,-1.8656 -1.8583,-2.96266 -1.02207,-1.09707 -1.8583,-2.54299 -1.8583,-3.21318 0,-0.67019 -0.41812,-1.21853 -0.92916,-1.21853 -0.51103,0 -0.92915,-0.58245 -0.92915,-1.29432 0,-0.71188 -0.62718,-1.53498 -1.39373,-1.82914 -0.76655,-0.29416 -1.39372,-0.96873 -1.39372,-1.49905 0,-0.53032 -4.28572,-5.39155 -9.52381,-10.80272 -5.2381,-5.41116 -9.85818,-10.42593 -10.26685,-11.14391 -0.40867,-0.71799 -1.27403,-1.30542 -1.92303,-1.30542 -0.649,0 -2.06265,-0.94077 -3.14144,-2.0906 -2.82058,-3.0063 -4.65952,-4.41347 -5.76768,-4.41347 -0.5326,0 -0.96837,-0.41812 -0.96837,-0.92915 0,-0.51103 -0.54834,-0.92915 -1.21853,-0.92915 -0.67018,0 -2.02907,-0.73717 -3.01974,-1.63816 -0.99067,-0.90099 -3.57822,-2.42791 -5.75011,-3.39315 -2.1719,-0.96525 -3.9489,-2.13428 -3.9489,-2.59786 0,-0.46358 -0.41812,-0.58446 -0.92915,-0.26863 -0.51104,0.31584 -0.92915,0.0618 -0.92915,-0.5646 0,-0.62636 -0.26207,-0.87677 -0.58238,-0.55646 -0.32031,0.3203 -1.77934,-0.0366 -3.2423,-0.79312 -1.46295,-0.75652 -2.97789,-1.40826 -3.36652,-1.4483 -0.38862,-0.04 -1.54283,-0.5394 -2.5649,-1.10969 -1.02207,-0.57029 -2.1719,-1.10397 -2.55517,-1.18595 -0.38328,-0.082 -0.90592,-0.25361 -1.16144,-0.38136 -0.25552,-0.12776 -0.8827,-0.33682 -1.39373,-0.46458 -0.51103,-0.12776 -1.13821,-0.33682 -1.39373,-0.46458 -0.25551,-0.12776 -0.88269,-0.33681 -1.39373,-0.46457 -0.51103,-0.12776 -1.03368,-0.31893 -1.16144,-0.42484 -0.12775,-0.1059 -1.47621,-0.39414 -2.99659,-0.64051 -1.52036,-0.24638 -3.2313,-0.83555 -3.8021,-1.30927 -0.57078,-0.47371 -1.30281,-0.59628 -1.62671,-0.27237 -0.32391,0.3239 -1.16015,0.11484 -1.8583,-0.46458 -0.69817,-0.57942 -1.5167,-0.80619 -1.81895,-0.50394 -0.30225,0.30225 -1.09267,0.21389 -1.75648,-0.19636 -0.6638,-0.41026 -1.84145,-0.84396 -2.61698,-0.96378 -0.77554,-0.11982 -2.66442,-0.45481 -4.19752,-0.74442 -5.9788,-1.12939 -9.65751,-1.65961 -19.5122,-2.81234 -5.15939,-0.6035 -36.6555,-0.61668 -43.20557,-0.0181 -5.20864,0.47601 -10.33327,1.25896 -18.11847,2.76819 -1.02207,0.19813 -4.68841,1.19433 -8.14742,2.21378 -3.45901,1.01944 -6.38584,1.83152 -6.50406,1.80463 -0.11823,-0.0269 -1.83396,0.62756 -3.81274,1.45435 -1.97879,0.8268 -3.80277,1.50326 -4.0533,1.50326 -1.08049,0 -19.409,8.90776 -20.52213,9.97387 -0.67529,0.64677 -1.82512,1.17595 -2.55517,1.17595 -0.73005,0 -1.32736,0.34747 -1.32736,0.77215 0,0.42467 -1.1256,1.36544 -2.50135,2.09059 -1.37574,0.72514 -3.76858,2.46827 -5.31741,3.87361 -1.54883,1.40535 -3.10883,2.55517 -3.46667,2.55517 -0.35783,0 -1.84867,1.14983 -3.31295,2.55517 -19.59258,18.80378 -19.65719,18.87139 -25.52735,26.71313 -1.14765,1.5331 -2.31077,2.99651 -2.58472,3.25203 -0.27395,0.25551 -1.09072,1.6144 -1.81505,3.01974 -0.72434,1.40534 -1.66444,2.55517 -2.08912,2.55517 -0.42468,0 -0.77214,0.39293 -0.77214,0.87317 0,0.48024 -2.88237,6.3339 -6.40527,13.00813 -3.5229,6.67423 -6.19258,12.13496 -5.93263,12.13496 0.25995,0 -0.21226,1.0453 -1.04936,2.32288 -0.83711,1.27759 -1.28861,2.32288 -1.00333,2.32288 0.28528,0 -0.004,0.94077 -0.64252,2.09059 -0.63866,1.14983 -1.2051,2.29966 -1.25875,2.55517 -0.41539,1.9784 -2.61464,9.05407 -3.42928,11.03307 -0.55234,1.34181 -1.15427,3.27588 -1.33762,4.29794 -0.18335,1.02207 -0.59561,2.48548 -0.91614,3.25204 -0.32052,0.76655 -0.69629,2.0209 -0.83504,2.78745 -0.13875,0.76655 -0.52135,2.43903 -0.8502,3.71661 -0.60081,2.33407 -1.07739,4.78553 -1.85207,9.52679 -0.22989,1.40698 -0.61326,3.70663 -0.85193,5.11034 -2.04525,12.02858 -2.54865,21.4146 -2.52884,47.15149 0.0238,30.9624 0.51957,37.32883 4.37734,56.2137 0.26098,1.27759 0.62244,3.15912 0.80324,4.18119 0.1808,1.02207 0.42726,2.06736 0.54769,2.32288 0.12043,0.25552 0.30021,0.88269 0.39952,1.39373 0.0993,0.51103 0.44888,1.55633 0.77682,2.32288 0.32794,0.76655 0.7791,2.43902 1.00259,3.71661 0.22348,1.27758 0.5011,2.53194 0.61691,2.78745 0.11581,0.25552 0.30771,0.8827 0.42644,1.39373 0.11874,0.51103 0.31638,1.24274 0.4392,1.62602 0.12283,0.38327 0.31169,1.01045 0.41972,1.39372 0.10801,0.38328 0.54,1.53311 0.95998,2.55517 2.5543,6.21622 4.09624,10.68525 3.68669,10.68525 -0.25984,0 0.21247,1.0453 1.04958,2.32288 0.8371,1.27759 1.16033,2.32929 0.71828,2.33711 -0.44205,0.008 -0.38561,0.32141 0.12543,0.69686 0.51103,0.37545 2.73692,4.40936 4.94641,8.96424 2.20951,4.55487 5.44992,10.52118 7.20093,13.25845 1.75102,2.73729 3.18367,5.19606 3.18367,5.46396 0,0.2679 1.04529,1.61439 2.32288,2.99221 1.27758,1.37781 2.32288,2.93147 2.32288,3.45254 0,0.52109 0.83623,1.46968 1.8583,2.10797 1.02207,0.63829 1.8583,1.49424 1.8583,1.9021 0,0.59334 5.48239,7.05115 9.04169,10.65036 3.65667,3.69766 10.71162,9.9637 11.22202,9.96712 0.35321,0.002 1.97842,1.25672 3.61157,2.78746 1.63315,1.53073 3.21802,2.78315 3.52195,2.78315 0.79273,0 6.45761,4.04797 6.82654,4.87805 0.17035,0.38328 0.90206,0.69687 1.62602,0.69687 0.72397,0 1.3163,0.44279 1.3163,0.98399 0,0.54119 0.41812,0.72557 0.92915,0.40973 0.51104,-0.31583 0.92916,-0.17678 0.92916,0.30901 0,0.4858 1.04529,1.14562 2.32288,1.46627 1.27758,0.32066 2.32288,1.01784 2.32288,1.5493 0,0.53145 0.41811,0.70787 0.92915,0.39203 0.51103,-0.31583 0.92915,-0.13145 0.92915,0.40974 0,0.5412 0.31359,0.89016 0.69686,0.77548 0.86992,-0.26029 15.14429,5.6558 16.72474,6.93166 0.6388,0.51569 1.16144,0.62616 1.16144,0.24549 0,-0.38066 0.62718,-0.1716 1.39373,0.46458 0.76655,0.63618 1.39373,0.84524 1.39373,0.46458 0,-0.38067 0.62718,-0.17161 1.39373,0.46457 0.76655,0.63618 1.39373,0.84524 1.39373,0.46458 0,-0.38067 0.56111,-0.22643 1.24693,0.34274 0.6858,0.56917 1.49423,0.78756 1.79649,0.48531 0.30225,-0.30225 1.10002,-0.20586 1.77281,0.21421 1.23462,0.77088 2.47396,1.12404 5.86902,1.67244 1.02206,0.16509 1.8583,0.38837 1.8583,0.49618 0,0.22285 2.0707,0.60375 7.43322,1.36731 2.04413,0.29106 4.7619,0.77315 6.03949,1.0713 1.27758,0.29816 4.14308,0.69044 6.36775,0.87175 2.22469,0.18131 4.21564,0.5004 4.42434,0.7091 0.48174,0.48173 34.87717,-0.16728 39.8467,-0.75189 z"
     id="path3"
     transform="scale(0.08)" />
</svg>
