<?xml version="1.0" encoding="UTF-8" standalone="no"?>
<!-- Uploaded to: SVG Repo, www.svgrepo.com, Generator: SVG Repo Mixer Tools -->

<svg
   width="800px"
   height="800px"
   viewBox="0 0 20 20"
   version="1.1"
   id="svg1"
   sodipodi:docname="python-127-svgrepo-com.svg"
   inkscape:version="1.3 (0e150ed6c4, 2023-07-21)"
   xmlns:inkscape="http://www.inkscape.org/namespaces/inkscape"
   xmlns:sodipodi="http://sodipodi.sourceforge.net/DTD/sodipodi-0.dtd"
   xmlns="http://www.w3.org/2000/svg"
   xmlns:svg="http://www.w3.org/2000/svg">
  <sodipodi:namedview
     id="namedview1"
     pagecolor="#505050"
     bordercolor="#eeeeee"
     borderopacity="1"
     inkscape:showpageshadow="0"
     inkscape:pageopacity="0"
     inkscape:pagecheckerboard="0"
     inkscape:deskcolor="#505050"
     inkscape:zoom="1.07625"
     inkscape:cx="400"
     inkscape:cy="400"
     inkscape:window-width="1920"
     inkscape:window-height="1057"
     inkscape:window-x="-8"
     inkscape:window-y="-8"
     inkscape:window-maximized="1"
     inkscape:current-layer="svg1" />
  <title
     id="title1">python [#127]</title>
  <desc
     id="desc1">Created with Sketch.</desc>
  <defs
     id="defs1" />
  <g
     id="Page-1"
     stroke="none"
     stroke-width="1"
     fill="none"
     fill-rule="evenodd"
     style="fill:#000000;fill-opacity:1">
    <g
       id="Dribbble-Light-Preview"
       transform="translate(-340.000000, -7599.000000)"
       fill="#000000"
       style="fill:#000000;fill-opacity:1">
      <g
         id="icons"
         transform="translate(56.000000, 160.000000)"
         style="fill:#000000;fill-opacity:1">
        <path
           d="M296.744,7457.45798 C296.262,7457.45798 295.872,7457.06594 295.872,7456.58142 C295.872,7456.0969 296.262,7455.70587 296.744,7455.70587 C297.226,7455.70587 297.616,7456.0969 297.616,7456.58142 C297.616,7457.06594 297.226,7457.45798 296.744,7457.45798 M294.072,7459 C299.15,7459 298.833,7456.78649 298.833,7456.78649 L298.827,7454.49357 L293.982,7454.49357 L293.982,7453.80499 L300.751,7453.80499 C300.751,7453.80499 304,7454.17591 304,7449.02614 C304,7443.87636 301.165,7444.0583 301.165,7444.0583 L299.472,7444.0583 L299.472,7446.44873 C299.472,7446.44873 299.563,7449.29855 296.682,7449.29855 L291.876,7449.29855 C291.876,7449.29855 289.176,7449.25533 289.176,7451.9222 L289.176,7456.33112 C289.176,7456.33112 288.766,7459 294.072,7459 M291.257,7440.54202 C291.739,7440.54202 292.128,7440.93406 292.128,7441.41858 C292.128,7441.9031 291.739,7442.29413 291.257,7442.29413 C290.775,7442.29413 290.385,7441.9031 290.385,7441.41858 C290.385,7440.93406 290.775,7440.54202 291.257,7440.54202 M293.928,7439 C288.851,7439 289.168,7441.21351 289.168,7441.21351 L289.174,7443.50643 L294.019,7443.50643 L294.019,7444.19501 L287.249,7444.19501 C287.249,7444.19501 284,7443.82409 284,7448.97386 C284,7454.12364 286.836,7453.9417 286.836,7453.9417 L288.528,7453.9417 L288.528,7451.55127 C288.528,7451.55127 288.437,7448.70145 291.319,7448.70145 L296.124,7448.70145 C296.124,7448.70145 298.824,7448.74467 298.824,7446.0778 L298.824,7441.66888 C298.824,7441.66888 299.234,7439 293.928,7439"
           id="python-[#127]"
           style="fill:#000000;fill-opacity:1" />
      </g>
    </g>
  </g>
  <path
     style="fill:#8839ef;fill-opacity:1;fill-rule:evenodd;stroke:#179299;stroke-width:1.25621;stroke-opacity:1"
     d="M 94.773519,594.70323 C 34.425517,578.93017 0.55196423,508.81699 0.48272976,399.53542 0.43769319,328.44831 16.221087,274.93723 46.682641,242.90198 c 16.65564,-17.51609 34.234598,-27.50143 57.361249,-32.58279 8.11267,-1.7825 12.29437,-1.83055 152.61324,-1.75355 l 144.27202,0.0792 V 194.2179 179.79096 h -96.63182 -96.63182 l -0.23229,-39.25668 C 207.07008,79.163486 207.10274,78.045526 209.46207,71.080139 216.37148,50.681737 235.41389,32.819602 262.33104,21.48806 297.94193,6.496644 348.64199,-0.64526918 409.29152,0.78633078 464.38468,2.0867755 503.06767,9.4323633 534.36703,24.537161 c 29.19803,14.090712 45.60552,30.861242 55.08033,56.299076 l 2.42256,6.504065 0.27023,102.671308 c 0.27855,105.8284 0.14389,110.63644 -3.49744,124.8739 -8.53407,33.36792 -33.82362,57.726 -70.4065,67.81332 -17.07502,4.70825 -12.59043,4.53428 -133.56722,5.1815 -110.55957,0.59148 -113.5629,0.65435 -121.71893,2.54794 -10.3289,2.39807 -22.24981,6.72945 -29.15531,10.59337 -28.19819,15.7781 -45.90975,43.9366 -51.66408,82.13748 -1.11943,7.43144 -1.40072,19.75447 -1.4051,61.55633 l -0.005,52.26481 -38.7921,-0.0457 c -37.66308,-0.0444 -39.03548,-0.1093 -47.154471,-2.23134 z M 302.70459,129.92709 c 19.0299,-7.12545 28.05156,-29.63745 19.33872,-48.256381 -12.71358,-27.168289 -50.61387,-26.905069 -63.93772,0.444052 -2.25155,4.621642 -2.54767,6.299332 -2.56228,14.517062 -0.0145,8.132497 0.29122,9.949287 2.45044,14.564597 2.90612,6.21181 8.90166,13.01348 14.21691,16.12843 8.78476,5.14821 20.92711,6.18439 30.49393,2.60224 z"
     id="path2"
     transform="scale(0.025)" />
  <path
     style="fill:#179299;fill-opacity:1;fill-rule:evenodd;stroke:#8839ef;stroke-width:1.25621;stroke-opacity:1"
     d="m 375.37747,798.92662 c -48.58761,-2.864 -82.09997,-10.12365 -110.56911,-23.95214 -28.64301,-13.91296 -44.86575,-30.60065 -54.25572,-55.81072 l -2.42256,-6.50406 -0.27024,-102.67131 c -0.27855,-105.8284 -0.14388,-110.63644 3.49745,-124.8739 8.44437,-33.01718 33.44607,-57.43514 69.00831,-67.39712 18.5013,-5.18273 12.74058,-4.9438 134.96541,-5.5977 110.24902,-0.58982 113.5858,-0.65928 121.71893,-2.53332 20.303,-4.67825 35.98231,-12.82589 48.84502,-25.38194 13.84742,-13.51729 23.31999,-30.50325 28.70123,-51.46629 4.29174,-16.71883 4.67828,-23.19124 4.6811,-78.38272 l 0.003,-51.33566 h 38.44068 c 37.43377,0 38.66919,0.058 47.16513,2.21315 25.37917,6.43795 47.19004,23.50226 63.08322,49.3548 21.66929,35.24824 32.88434,91.26126 31.25418,156.09756 -0.91728,36.48319 -4.94605,63.44377 -13.25534,88.70509 -8.09306,24.60388 -18.73399,43.15002 -33.74605,58.81615 -12.55901,13.1062 -25.7412,21.71839 -42.0389,27.46486 -17.52497,6.17919 -7.6568,5.83847 -166.82481,5.76011 l -144.28717,-0.071 v 14.4243 14.42431 h 96.48003 96.48003 l 0.6098,47.61905 c 0.66021,51.55714 0.42553,55.44922 -3.97519,65.92323 -17.92353,42.65928 -86.26409,66.46151 -188.39732,65.6166 -11.13474,-0.0921 -22.33556,-0.2907 -24.89073,-0.44132 z m 139.80615,-60.77493 c 11.75983,-1.90795 21.76636,-9.51187 26.82168,-20.38166 2.03463,-4.3748 2.38399,-6.45 2.42729,-14.41812 0.0472,-8.68822 -0.15193,-9.71935 -2.99158,-15.49055 -6.17111,-12.54193 -17.33811,-19.56955 -31.33648,-19.7207 -12.49206,-0.13489 -22.49581,5.05122 -29.48253,15.28425 -14.34441,21.00936 -1.81278,50.53765 23.23906,54.75826 2.41184,0.40634 4.59422,0.78481 4.84974,0.84106 0.25552,0.0562 3.16829,-0.3364 6.47282,-0.87254 z"
     id="path3"
     transform="scale(0.025)" />
</svg>
