<?xml version="1.0" encoding="UTF-8" standalone="no"?>
<svg
   version="1.1"
   viewBox="0 0 2896.5863 635.18158"
   id="svg25"
   sodipodi:docname="waves-footer.svg"
   inkscape:version="1.3 (0e150ed6c4, 2023-07-21)"
   width="2896.5862"
   height="635.18158"
   xml:space="preserve"
   inkscape:export-filename="waves-header.png"
   inkscape:export-xdpi="96"
   inkscape:export-ydpi="96"
   xmlns:inkscape="http://www.inkscape.org/namespaces/inkscape"
   xmlns:sodipodi="http://sodipodi.sourceforge.net/DTD/sodipodi-0.dtd"
   xmlns:xlink="http://www.w3.org/1999/xlink"
   xmlns="http://www.w3.org/2000/svg"
   xmlns:svg="http://www.w3.org/2000/svg"><defs
     id="defs25"><rect
       x="850"
       y="92"
       width="1989.8948"
       height="381.89651"
       id="rect2" /><linearGradient
       id="linearGradient60"
       inkscape:collect="always"><stop
         style="stop-color:#179299;stop-opacity:1;"
         offset="0.40000001"
         id="stop60" /><stop
         style="stop-color:#8839ef;stop-opacity:1;"
         offset="1"
         id="stop61" /></linearGradient><linearGradient
       inkscape:collect="always"
       xlink:href="#linearGradient60"
       id="linearGradient61"
       x1="5.1568542"
       y1="12.369563"
       x2="1442.8433"
       y2="634.62354"
       gradientUnits="userSpaceOnUse"
       gradientTransform="matrix(-2.0004048,0,0,-0.99931021,2896.5862,635.18156)" /></defs><sodipodi:namedview
     id="namedview25"
     pagecolor="#505050"
     bordercolor="#eeeeee"
     borderopacity="1"
     inkscape:showpageshadow="false"
     inkscape:pageopacity="0"
     inkscape:pagecheckerboard="false"
     inkscape:deskcolor="#505050"
     inkscape:zoom="0.125"
     inkscape:cx="-1636"
     inkscape:cy="516"
     inkscape:window-width="1920"
     inkscape:window-height="1057"
     inkscape:window-x="-8"
     inkscape:window-y="-8"
     inkscape:window-maximized="1"
     inkscape:current-layer="svg25"
     showgrid="true"
     showborder="true"
     inkscape:clip-to-page="false"><inkscape:grid
       id="grid67"
       units="px"
       originx="724.29309"
       originy="-0.20693102"
       spacingx="1"
       spacingy="1"
       empcolor="#0099e5"
       empopacity="0.30196078"
       color="#0099e5"
       opacity="0.14901961"
       empspacing="5"
       dotted="false"
       gridanglex="30"
       gridanglez="30"
       visible="true" /></sodipodi:namedview><g
     stroke-width="2"
     fill="none"
     stroke-linecap="butt"
     id="g22"
     transform="translate(724.29307,-0.20693)"
     style="display:none"><path
       stroke="#ffb0a3"
       vector-effect="non-scaling-stroke"
       d="m 1448,635.62 -30.5,-3.43"
       id="path1" /><path
       stroke="#ffb0a3"
       vector-effect="non-scaling-stroke"
       d="m 1411.39,631.35 q -49.39,-6.65 -95.89,-17.78 -19.45,-4.65 -41.77,-11.52"
       id="path2" /><path
       stroke="#ffb0a3"
       vector-effect="non-scaling-stroke"
       d="m 1259.15,597.49 q -45.54,-14.78 -89.19,-34.66"
       id="path3" /><path
       stroke="#ffb0a3"
       vector-effect="non-scaling-stroke"
       d="m 1158.86,557.72 q -0.03,0.05 -0.07,0.1 -0.08,0.1 -0.19,0.04 -40.11,-18.93 -80.75,-36.67 -38.54,-16.83 -78.34,-30.41 C 944.73,472.08 887.53,461.7 829.58,460.69"
       id="path4" /><path
       stroke="#ffb0a3"
       vector-effect="non-scaling-stroke"
       d="m 794.16,460.67 -75.09,3.97"
       id="path5" /><path
       stroke="#ffb0a3"
       vector-effect="non-scaling-stroke"
       d="m 715.14,464.74 -18.11,0.63"
       id="path6" /><path
       stroke="#ffb0a3"
       vector-effect="non-scaling-stroke"
       d="m 654.9,465.39 q -76,-1.89 -147.21,-29.51"
       id="path7" /><path
       stroke="#b74674"
       vector-effect="non-scaling-stroke"
       d="M 499.75,432.64 Q 446.79,411.3 401.84,375.92 c -31,-24.4 -57.06,-50.35 -84.35,-79.54 Q 287.42,264.2 255.37,234.01 c -49.96,-47.07 -110.14,-82.03 -179,-91.59 -22.7,-3.16 -45.75,-3.01 -70.62,-1.29 q -2.89,0.2 -5.75,0"
       id="path8" /><path
       stroke="#b795d0"
       vector-effect="non-scaling-stroke"
       d="m 515.68,444.14 q 61.46,45.45 122.94,90.99 c 14.12,10.46 24.1,18.97 37.52,26.17 q 16.29,8.73 32.39,17.6"
       id="path9" /><path
       stroke="#b795d0"
       vector-effect="non-scaling-stroke"
       d="m 717.6,583.83 5.85,3.24"
       id="path10" /><path
       stroke="#b795d0"
       vector-effect="non-scaling-stroke"
       d="m 763.32,606.69 q 72.49,33.98 151.4,46.22"
       id="path11" /><path
       stroke="#b795d0"
       vector-effect="non-scaling-stroke"
       d="m 920.04,653.62 28.37,3.34"
       id="path12" /><path
       stroke="#b795d0"
       vector-effect="non-scaling-stroke"
       d="m 958.01,657.52 23.42,1.59"
       id="path13" /><path
       stroke="#b795d0"
       vector-effect="non-scaling-stroke"
       d="m 1005.05,659.49 5.89,0.06"
       id="path14" /><path
       stroke="#b795d0"
       vector-effect="non-scaling-stroke"
       d="m 1047.8,659.34 20.71,-0.82"
       id="path15" /><path
       stroke="#b795d0"
       vector-effect="non-scaling-stroke"
       d="m 1095.81,658.27 h 41.87"
       id="path16" /><path
       stroke="#b795d0"
       vector-effect="non-scaling-stroke"
       d="m 1152.24,658.51 11.94,0.81"
       id="path17" /><path
       stroke="#b795d0"
       vector-effect="non-scaling-stroke"
       d="m 1170.98,659.53 13.9,1.41"
       id="path18" /><path
       stroke="#b795d0"
       vector-effect="non-scaling-stroke"
       d="m 1191.02,661.59 q 42.64,5.32 83.4,18.36"
       id="path19" /><path
       stroke="#b795d0"
       vector-effect="non-scaling-stroke"
       d="m 1285.1,683.51 q 27.53,9.7 53.85,22.47"
       id="path20" /><path
       stroke="#b795d0"
       vector-effect="non-scaling-stroke"
       d="m 1378.02,725.54 8.46,4.48"
       id="path21" /><path
       stroke="#b795d0"
       vector-effect="non-scaling-stroke"
       d="m 1401.26,737.52 q 19.73,11.1 42.74,17.86 2.74,0.8 4,-0.11"
       id="path22" /></g><path
     fill="#ff6147"
     d="M 2896.5862,635.18156 H 0 V 0 l 61.0124,3.42763 c 4.9028,0.0593 9.165,0.17898 12.2225,0.83943 65.8667,4.43027 129.8062,10.35285 191.8188,17.76773 25.9386,3.09786 53.7909,6.93521 83.5569,11.51205 9.4285,2.08523 19.1505,3.60419 29.1659,4.55686 60.7323,9.84653 120.2043,21.3919 178.4161,34.63609 6.8414,2.19848 14.2429,3.90064 22.2045,5.10648 0.04,-0.0333 0.086,-0.0667 0.14,-0.0999 0.106,-0.0666 0.2335,-0.0799 0.3801,-0.04 53.4908,12.6113 107.3351,24.8262 161.5327,36.64471 51.397,11.21226 103.6343,21.34194 156.7117,30.38902 109.5822,18.6871 224.0053,29.05994 339.9288,30.06925 23.5781,0.77279 47.1962,0.77946 70.8543,0.02 l 150.2104,-3.96726 c 2.3205,0.65288 4.941,0.61957 7.8616,-0.0999 l 36.2273,-0.62957 84.2771,-0.02 c 101.3538,1.25909 199.5137,11.08897 294.4796,29.4896 l 15.8832,3.23777 c 70.6276,14.21685 135.9142,33.11047 195.8596,56.68087 62.0126,24.38317 114.1431,50.31527 168.7342,79.48514 40.1014,21.43853 81.5231,42.21419 124.2651,62.32697 99.9402,47.03754 220.3246,81.97341 358.0725,91.52683 45.4092,3.15782 91.5185,3.00792 141.2686,1.28911 3.8541,-0.13324 7.6882,-0.13324 11.5023,0 z"
     id="path23"
     sodipodi:nodetypes="ccccccccccscccccccccccscccccc"
     style="display:inline;fill:url(#linearGradient61);fill-opacity:1;stroke:none;stroke-width:1.41387" /></svg>
